<svg id="Layer_1" data-name="Layer 1" xmlns="http://www.w3.org/2000/svg" viewBox="0 0 1101.32648 251.23096"><defs><style>.cls-1{fill:#d12053;}.cls-2{fill:#fff;}.cls-3{fill:#3e3833;}.cls-4{fill:#766d67;}</style></defs><path class="cls-1" d="M145.07913,79.57178c-2.45-22.05-11.65-34.27-30.62-39.13a76.82864,76.82864,0,0,0-12.52-2.28,263.71159,263.71159,0,0,0-28.99-1.41,263.59212,263.59212,0,0,0-28.99,1.41,77.60471,77.60471,0,0,0-12.62,2.31c-18.91,4.87-28.07,17.09-30.52,39.1-1.67,14.97-.61,30.58,1.59,45.55005,2.64,17.86,14.96,28.59,32.24,32.71a163.03859,163.03859,0,0,0,37.92,4.43h.75a163.05986,163.05986,0,0,0,37.93-4.43c17.28-4.12,29.6-14.85,32.23-32.71C145.68911,110.15179,146.7391,94.54181,145.07913,79.57178Zm-48.67,28.36v.04h-15.94c3.17,6.31,6.07,12.1,9.01,17.95-.04-.05-.07-.09-.11-.14,1.55,3.1,3.11,6.21,4.72,9.42-3.7,1.89-6.61,3.39-10.21,5.23-4.85-9.18-9.51-17.96-15.5-29.27-6,7.68-11.34,14.52-16.67,21.35l-2.28,2.95v-80.38c7.96,7.31,15.74005,14.44,23.51,21.57l.01-.01c7.77,7.12,15.53,14.24,23.46,21.51v.01q5.265,4.83,10.63995,9.77Z"/><path class="cls-2" d="M80.40915,107.93182c3.15,6.28,6.04,12.04,8.96,17.85,1.55,3.1,3.11,6.21,4.72,9.42-3.7,1.89-6.61,3.39-10.21,5.23-4.85-9.18-9.51-17.96-15.5-29.27-6,7.68-11.34,14.52-16.67,21.35l-2.28,2.95v-80.38c7.96,7.31,15.74005,14.44,23.51,21.57,7.77,7.12,15.54,14.24,23.47,21.51q5.265,4.83,10.63995,9.77Z"/><path class="cls-3" d="M168.57907,159.17432V39.79346h19.89648v15.855a38.95111,38.95111,0,0,1,11.03662-10.05176q6.57935-4.04151,17.6167-6.0625,11.03687-2.02076,28.96436-2.02051,23.41845,0,36.94385,4.55957,13.52343,4.56153,19.22314,16.26953,5.69751,11.71216,5.69922,33.16162v67.66993h-20V91.50439q0-12.227-2.07275-19.68945-2.07423-7.46192-7.09864-11.2959-5.02734-3.83275-13.83447-5.12939a158.74445,158.74445,0,0,0-22.38379-1.29541q-20.72754,0-32.53955,3.41992Q198.217,60.93385,193.34616,68.23975q-4.87207,7.30517-4.87061,19.01562v71.919Z"/><path class="cls-3" d="M475.00534,123.73291q0,13.36816-3.98975,21.03711a23.94311,23.94311,0,0,1-12.17676,11.19141q-8.187,3.52441-20.88086,4.50781-12.69579.98438-30.208.98437a241.461,241.461,0,0,1-33.93848-2.0205q-13.93872-2.02-22.4873-8.29-8.54956-6.26953-12.43555-18.80909-3.88623-12.53759-3.88623-33.47216,0-20.30932,3.78271-32.53955,3.7815-12.22632,12.27979-18.44581,8.49609-6.21751,22.332-8.29052a233.50216,233.50216,0,0,1,33.835-2.07227q22.90137,0,37.92822,3.2124,15.02418,3.21314,22.43555,12.228,7.40772,9.01611,7.40967,26.42529v25.59668H355.0029q.1018,13.26563,1.86523,21.24366,1.76074,7.9812,7.04688,12.021,5.28515,4.04151,15.80322,5.33692a239.603,239.603,0,0,0,28.03174,1.2959q15.75073,0,25.44091-.62208,9.68849-.62109,14.71534-2.74609a11.9021,11.9021,0,0,0,6.78759-6.37353q1.76075-4.24806,1.76172-11.39893ZM407.2319,54.09424a237.04977,237.04977,0,0,0-27.20264,1.24365q-10.3125,1.24365-15.6997,4.81836a17.79392,17.79392,0,0,0-7.30567,10.62207q-1.91893,7.04883-2.021,18.5498H455.93747V79.37939a38.21882,38.21882,0,0,0-1.71-12.3833,14.21046,14.21046,0,0,0-6.68409-7.77246q-4.97387-2.84838-14.66357-3.98974A229.5209,229.5209,0,0,0,407.2319,54.09424Z"/><path class="cls-3" d="M574.69235,161.45361a242.61042,242.61042,0,0,1-33.99023-2.0205q-13.99-2.02-22.59131-8.29-8.603-6.26953-12.53907-18.80909-3.93969-12.53759-3.938-33.47216,0-20.30932,3.938-32.53955,3.9375-12.22632,12.53907-18.44581,8.60082-6.21751,22.59131-8.29052a236.82546,236.82546,0,0,1,33.99023-2.07227q23.93847,0,39.43115,2.7461,15.49072,2.74657,22.9541,11.24365,7.46046,8.4983,7.46094,25.90722H625.47116q0-10.05029-4.14551-15.02636-4.14551-4.97388-15.12988-6.63184-10.9856-1.65673-31.50342-1.6582-18.44678,0-29.22363,1.5542-10.77906,1.55493-15.855,6.0625-5.07863,4.50805-6.58057,13.41992a148.87686,148.87686,0,0,0-1.50244,23.731,159.34689,159.34689,0,0,0,1.50244,24.56006q1.50147,9.22485,6.58057,13.83447,5.07641,4.61278,15.855,6.11426a222.39834,222.39834,0,0,0,29.22363,1.50293q15.646,0,25.5957-.88086,9.94995-.87891,15.4419-3.52344a14.85044,14.85044,0,0,0,7.61621-7.669q2.12256-5.02513,2.125-13.41992h19.06738q0,13.88818-4.14551,22.28027a27.35572,27.35572,0,0,1-12.64257,12.64258q-8.49756,4.251-21.71045,5.7002A292.24433,292.24433,0,0,1,574.69235,161.45361Z"/><path class="cls-3" d="M678.62741,159.17432V0h19.89746V159.17432Z"/><path class="cls-3" d="M735.93112,19.89648V0H755.8276V19.89648Zm0,139.27784V46.42578H755.8276V159.17432Z"/><path class="cls-3" d="M856.34323,161.45361a242.60567,242.60567,0,0,1-33.99024-2.0205q-13.99071-2.02-22.59082-8.29-8.603-6.26953-12.53906-18.80909-3.94042-12.53759-3.93848-33.47216,0-20.30932,3.93848-32.53955,3.936-12.22632,12.53906-18.44581,8.6001-6.21751,22.59082-8.29052a236.82083,236.82083,0,0,1,33.99024-2.07227q23.93847,0,39.43066,2.7461,15.49072,2.74657,22.9541,11.24365,7.46046,8.4983,7.46094,25.90722H907.12155q0-10.05029-4.14551-15.02636-4.14551-4.97388-15.12988-6.63184-10.98486-1.65673-31.50293-1.6582-18.44677,0-29.22363,1.5542-10.77832,1.55493-15.85547,6.0625-5.07863,4.50805-6.58008,13.41992a148.92591,148.92591,0,0,0-1.50293,23.731,159.39935,159.39935,0,0,0,1.50293,24.56006q1.50147,9.22485,6.58008,13.83447,5.07714,4.61278,15.85547,6.11426a222.39834,222.39834,0,0,0,29.22363,1.50293q15.646,0,25.5957-.88086,9.94921-.87891,15.44141-3.52344a14.85044,14.85044,0,0,0,7.61621-7.669q2.12256-5.02513,2.125-13.41992h19.06738q0,13.88818-4.14551,22.28027a27.35572,27.35572,0,0,1-12.64257,12.64258q-8.49756,4.251-21.71,5.7002A292.244,292.244,0,0,1,856.34323,161.45361Z"/><path class="cls-3" d="M954.269,159.17432V0h19.89648V91.919l79.27539-52.12549h30.15625l-84.25,56.063,87.56641,63.31787h-29.63769L974.16549,97.9292v61.24512Z"/><path class="cls-4" d="M452.19528,250.436H421.6362V204.13916h29.59521v3.9043H426.04684v16.62988h23.30469V228.481H426.04684v18.123h26.14844Z"/><path class="cls-4" d="M528.78171,235.87939q-4.60548,15.35157-19.2085,15.35157a22.996,22.996,0,0,1-8.71192-1.542,16.98491,16.98491,0,0,1-6.48291-4.61523,22.98283,22.98283,0,0,1-4.30224-7.79687,30.48388,30.48388,0,0,1-1.61426-9.92872q0-10.55565,5.78369-17.28027,5.78394-6.72363,15.49658-6.72363a19.01614,19.01614,0,0,1,11.19385,3.26562q4.66407,3.26514,7.21875,10.27832l-4.19336,1.15723q-3.85547-11.0625-13.93017-11.0625a15.00468,15.00468,0,0,0-12.41162,5.77246q-4.57911,5.77149-4.57911,14.665,0,9.97705,4.62745,15.08691a15.09047,15.09047,0,0,0,11.68847,5.10938q11.61547,0,15.42334-12.82129Z"/><path class="cls-4" d="M602.21042,250.436h-4.26563V227.95068H571.09713V250.436h-4.33886V204.13916h4.33886v19.97949h26.84766V204.13916h4.26563Z"/><path class="cls-4" d="M684.38717,227.30029q0,10.84425-5.73632,17.3877t-15.834,6.543a21.43522,21.43522,0,0,1-11.38672-2.8916,19.86071,19.86071,0,0,1-7.43554-8.26661,28.14628,28.14628,0,0,1-2.69922-12.77246q0-10.82079,5.75976-17.38867,5.75977-6.56689,15.76172-6.56738a21.54634,21.54634,0,0,1,11.52051,2.94043,19.71859,19.71859,0,0,1,7.41016,8.30273A28.49415,28.49415,0,0,1,684.38717,227.30029Zm-4.5791,0q0-9.10986-4.53125-14.72558-4.53077-5.61476-12.46-5.61524-7.97754,0-12.46,5.63965-4.48242,5.63818-4.48242,14.70117,0,8.98829,4.55469,14.65235a15.04855,15.04855,0,0,0,12.38769,5.66406,15.67754,15.67754,0,0,0,8.89356-2.4707,17.0476,17.0476,0,0,0,5.90429-7.085A24.82261,24.82261,0,0,0,679.80807,227.30029Z"/><rect class="cls-4" x="733.33311" y="214.64634" width="367.99336" height="3.23073" rx="1.61536"/><rect class="cls-4" x="733.33311" y="227.16541" width="367.99336" height="3.23073" rx="1.61536"/><rect class="cls-4" x="8.75067" y="214.64634" width="370.88172" height="3.23073" rx="1.61536"/><rect class="cls-4" x="8.75067" y="227.16541" width="370.88172" height="3.23073" rx="1.61536"/></svg>